<svg width="24" height="24" viewBox="0 0 24 24" fill="none" xmlns="http://www.w3.org/2000/svg">
    <path fill-rule="evenodd" clip-rule="evenodd" d="M12 2C6.477 2 2 6.477 2 12c0 1.898.532 3.68 1.457 5.2L2.25 21.75l4.63-1.23C8.402 21.378 10.134 22 12 22c5.523 0 10-4.477 10-10S17.523 2 12 2zM7.5 9.5c0-.5.3-.9.7-.9h1c.2 0 .4.1.5.3l.6 1.2c.1.3 0 .6-.3.8l-.9.7c.2.6.6 1.1 1.1 1.5l2.4 2.4c.4.4 1 .6 1.5.4l.7-.9c.2-.3.6-.4.9-.2l1.3.6c.2.1.3.3.3.5v1c0 .4-.4.8-.9.8h-1c-2.8 0-5-2.2-5-5v-1z" fill="white"/>
</svg>
